# xmcd
#
# Track frame offsets:
#	150
#	21541
#	44305
#	68239
#	92183
#	121534
#	147650
#	165805
#	191496
#
# Disc length: 2868 seconds
#
# Revision: 0
# Processed by: cddbd v1.5.2PL0 Copyright (c) Steve Scherf et al.
# Submitted via: EasyCDDAExtractor 16.0.9.1
#
DISCID=760b3209
DTITLE=Various Artist - NRG Makeovers 4
DYEAR=2003
DGENRE=Euro-House
TTITLE0=No Destiny - Just Like A Pill
TTITLE1=One Nation - Feel
TTITLE2=Leit-Motiv - Unbreak My Heart (Factory Team Mix)
TTITLE3=Orlando - Heat Of The Moment
TTITLE4=DJ Octopus - Just The Way You Are (Club Mix)
TTITLE5=MC Boy - I Love America
TTITLE6=Girlzz - All The Things She Said
TTITLE7=Ian Lex - I Believe In You
TTITLE8=Wienna - Fire On The Moon
EXTD=
EXTT0=
EXTT1=
EXTT2=
EXTT3=
EXTT4=
EXTT5=
EXTT6=
EXTT7=
EXTT8=
PLAYORDER=
